<svg width="815" height="96" viewBox="0 0 815 96" fill="none" xmlns="http://www.w3.org/2000/svg">
<path d="M0 94.72V1.28H25.0927C31.1525 1.28 36.4015 2.47467 40.8397 4.864C45.3632 7.168 48.8625 10.4533 51.3377 14.72C53.8128 18.9013 55.0504 23.8507 55.0504 29.568V66.304C55.0504 72.0213 53.8128 77.0133 51.3377 81.28C48.8625 85.5467 45.3632 88.8747 40.8397 91.264C36.4015 93.568 31.1525 94.72 25.0927 94.72H0ZM12.6744 83.456H25.0927C30.4697 83.456 34.6945 81.92 37.7671 78.848C40.8397 75.776 42.376 71.5947 42.376 66.304V29.568C42.376 24.2773 40.8397 20.1387 37.7671 17.152C34.6945 14.08 30.4697 12.544 25.0927 12.544H12.6744V83.456Z" fill="#D1D1D1"/>
<path d="M78.4288 94.72V83.2H97.5044V12.8H78.4288V1.28H129.382V12.8H110.307V83.2H129.382V94.72H78.4288Z" fill="#D1D1D1"/>
<path d="M154.681 94.72V1.28H209.091V12.672H167.227V40.448H204.611V51.456H167.227V83.328H209.091V94.72H154.681Z" fill="#D1D1D1"/>
<path d="M257.947 96C249.326 96 242.456 93.6107 237.335 88.832C232.299 83.968 229.781 77.312 229.781 68.864V27.008C229.781 18.6453 232.299 12.0747 237.335 7.296C242.456 2.432 249.326 0 257.947 0C266.482 0 273.267 2.432 278.302 7.296C283.423 12.16 285.984 18.7307 285.984 27.008H273.309C273.309 21.9733 271.944 18.0907 269.213 15.36C266.482 12.6293 262.726 11.264 257.947 11.264C253.082 11.264 249.284 12.6293 246.552 15.36C243.821 18.0907 242.456 21.9733 242.456 27.008V68.864C242.456 73.984 243.821 77.9093 246.552 80.64C249.284 83.3707 253.082 84.736 257.947 84.736C262.726 84.736 266.482 83.3707 269.213 80.64C271.944 77.9093 273.309 73.984 273.309 68.864V56.704H255.13V45.44H285.984V68.864C285.984 77.2267 283.423 83.84 278.302 88.704C273.267 93.568 266.482 96 257.947 96Z" fill="#D1D1D1"/>
<path d="M334.199 96C325.664 96 318.921 93.5253 313.971 88.576C309.021 83.6267 306.546 76.6293 306.546 67.584V28.288C306.546 19.328 309.021 12.3733 313.971 7.424C318.921 2.47467 325.664 0 334.199 0C342.734 0 349.476 2.47467 354.427 7.424C359.377 12.288 361.852 19.2427 361.852 28.288V67.584C361.852 76.6293 359.377 83.6267 354.427 88.576C349.476 93.5253 342.734 96 334.199 96ZM334.199 84.736C338.979 84.736 342.649 83.3707 345.209 80.64C347.855 77.9093 349.178 73.984 349.178 68.864V27.008C349.178 21.9733 347.898 18.0907 345.337 15.36C342.777 12.6293 339.064 11.264 334.199 11.264C329.334 11.264 325.621 12.6293 323.061 15.36C320.5 18.0907 319.22 21.9733 319.22 27.008V68.864C319.22 73.984 320.5 77.9093 323.061 80.64C325.707 83.3707 329.419 84.736 334.199 84.736Z" fill="#D1D1D1"/>
<path d="M453.276 94.72V1.28H478.369C484.428 1.28 489.677 2.47467 494.116 4.864C498.639 7.168 502.138 10.4533 504.614 14.72C507.089 18.9013 508.326 23.8507 508.326 29.568V66.304C508.326 72.0213 507.089 77.0133 504.614 81.28C502.138 85.5467 498.639 88.8747 494.116 91.264C489.677 93.568 484.428 94.72 478.369 94.72H453.276ZM465.95 83.456H478.369C483.746 83.456 487.97 81.92 491.043 78.848C494.116 75.776 495.652 71.5947 495.652 66.304V29.568C495.652 24.2773 494.116 20.1387 491.043 17.152C487.97 14.08 483.746 12.544 478.369 12.544H465.95V83.456Z" fill="#D1D1D1"/>
<path d="M531.193 94.72V1.28H585.603V12.672H543.739V40.448H581.122V51.456H543.739V83.328H585.603V94.72H531.193Z" fill="#D1D1D1"/>
<path d="M606.293 94.72V82.304L647.132 12.8H606.933V1.28H660.319V13.696L619.351 83.2H661.727V94.72H606.293Z" fill="#D1D1D1"/>
<path d="M681.009 94.72V1.28H698.932L710.454 41.6L722.489 1.28H740.54V94.72H728.378V51.84C728.378 47.3173 728.463 42.3253 728.634 36.864C728.804 31.3173 729.018 25.8133 729.274 20.352C729.615 14.8053 729.957 9.81333 730.298 5.376L715.703 53.248H704.949L690.867 6.528C691.635 12.7573 692.19 19.712 692.531 27.392C692.872 34.9867 693.043 43.136 693.043 51.84V94.72H681.009Z" fill="#D1D1D1"/>
<path d="M787.475 96C778.684 96 771.899 93.568 767.119 88.704C762.425 83.84 760.078 77.2267 760.078 68.864V1.28H772.752V68.864C772.752 73.8133 773.947 77.696 776.337 80.512C778.812 83.328 782.525 84.736 787.475 84.736C792.34 84.736 796.01 83.328 798.485 80.512C801.045 77.696 802.326 73.8133 802.326 68.864V1.28H815V68.864C815 77.312 812.61 83.968 807.831 88.832C803.136 93.6107 796.351 96 787.475 96Z" fill="#D1D1D1"/>
</svg>
