<svg width="138" height="16" viewBox="0 0 138 16" fill="none" xmlns="http://www.w3.org/2000/svg">
<path d="M0 15.7867V0.213333H4.3768C5.40664 0.213333 6.30059 0.412444 7.05867 0.810666C7.81674 1.19467 8.40317 1.74933 8.81797 2.47467C9.24707 3.18578 9.46162 4.01778 9.46162 4.97067V10.9867C9.46162 11.968 9.24707 12.8142 8.81797 13.5253C8.40317 14.2364 7.81674 14.7911 7.05867 15.1893C6.30059 15.5876 5.40664 15.7867 4.3768 15.7867H0ZM2.31713 13.7173H4.3768C5.2207 13.7173 5.89295 13.4756 6.39356 12.992C6.89418 12.5084 7.14449 11.84 7.14449 10.9867V4.97067C7.14449 4.14578 6.89418 3.49156 6.39356 3.008C5.89295 2.51022 5.2207 2.26133 4.3768 2.26133H2.31713V13.7173Z" fill="#D1D1D1"/>
<path d="M13.1864 15.7867V13.696H16.3403V2.304H13.1864V0.213333H21.8756V2.304H18.7003V13.696H21.8756V15.7867H13.1864Z" fill="#D1D1D1"/>
<path d="M25.9651 15.7867V0.213333H35.1693V2.26133H28.2394V6.69867H34.4184V8.68267H28.2394V13.7387H35.1693V15.7867H25.9651Z" fill="#D1D1D1"/>
<path d="M43.3352 16C41.862 16 40.6891 15.5947 39.8166 14.784C38.9584 13.9591 38.5293 12.8498 38.5293 11.456V4.544C38.5293 3.136 38.9584 2.02667 39.8166 1.216C40.6891 0.405333 41.862 0 43.3352 0C44.7942 0 45.9527 0.412444 46.8109 1.23733C47.6834 2.048 48.1197 3.15022 48.1197 4.544H45.8026C45.8026 3.73333 45.5808 3.11467 45.1374 2.688C44.7083 2.26133 44.1076 2.048 43.3352 2.048C42.5486 2.048 41.9335 2.26133 41.4901 2.688C41.061 3.11467 40.8465 3.72622 40.8465 4.52267V11.456C40.8465 12.2667 41.061 12.8924 41.4901 13.3333C41.9335 13.76 42.5486 13.9733 43.3352 13.9733C44.1076 13.9733 44.7083 13.76 45.1374 13.3333C45.5808 12.8924 45.8026 12.2667 45.8026 11.456V9.536H42.8847V7.488H48.1197V11.456C48.1197 12.8498 47.6834 13.9591 46.8109 14.784C45.9527 15.5947 44.7942 16 43.3352 16Z" fill="#D1D1D1"/>
<path d="M56.114 16C54.655 16 53.5036 15.5876 52.6597 14.7627C51.8158 13.9236 51.3939 12.7502 51.3939 11.2427V4.75733C51.3939 3.24978 51.8158 2.08356 52.6597 1.25867C53.5036 0.419555 54.655 0 56.114 0C57.5729 0 58.7243 0.419555 59.5682 1.25867C60.4121 2.08356 60.8341 3.24267 60.8341 4.736V11.2427C60.8341 12.7502 60.4121 13.9236 59.5682 14.7627C58.7243 15.5876 57.5729 16 56.114 16ZM56.114 13.952C56.8864 13.952 57.4799 13.7387 57.8947 13.312C58.3095 12.8853 58.5169 12.2667 58.5169 11.456V4.544C58.5169 3.73333 58.3095 3.11467 57.8947 2.688C57.4942 2.26133 56.9007 2.048 56.114 2.048C55.3273 2.048 54.7266 2.26133 54.3118 2.688C53.9113 3.11467 53.711 3.73333 53.711 4.544V11.456C53.711 12.2667 53.9184 12.8853 54.3332 13.312C54.748 13.7387 55.3416 13.952 56.114 13.952Z" fill="#D1D1D1"/>
<path d="M77.1874 15.7867V0.213333H81.5642C82.594 0.213333 83.488 0.412444 84.2461 0.810666C85.0041 1.19467 85.5906 1.74933 86.0054 2.47467C86.4345 3.18578 86.649 4.01778 86.649 4.97067V10.9867C86.649 11.968 86.4345 12.8142 86.0054 13.5253C85.5906 14.2364 85.0041 14.7911 84.2461 15.1893C83.488 15.5876 82.594 15.7867 81.5642 15.7867H77.1874ZM79.5045 13.7173H81.5642C82.4081 13.7173 83.0803 13.4756 83.581 12.992C84.0816 12.5084 84.3319 11.84 84.3319 10.9867V4.97067C84.3319 4.14578 84.0816 3.49156 83.581 3.008C83.0803 2.51022 82.4081 2.26133 81.5642 2.26133H79.5045V13.7173Z" fill="#D1D1D1"/>
<path d="M90.288 15.7867V0.213333H99.4921V2.26133H92.5622V6.69867H98.7412V8.68267H92.5622V13.7387H99.4921V15.7867H90.288Z" fill="#D1D1D1"/>
<path d="M102.895 15.7867V13.568L109.568 2.304H103.024V0.213333H112.035V2.41067L105.362 13.696H112.249V15.7867H102.895Z" fill="#D1D1D1"/>
<path d="M115.352 15.7867V0.213333H118.527L120.394 6.93333L122.325 0.213333H125.522V15.7867H123.333V8.832C123.333 8.03556 123.348 7.17511 123.376 6.25067C123.419 5.312 123.469 4.38756 123.526 3.47733C123.584 2.56711 123.648 1.74222 123.719 1.00267L121.359 8.93867H119.407L117.133 1.19467C117.261 2.20444 117.362 3.36355 117.433 4.672C117.505 5.98044 117.54 7.36711 117.54 8.832V15.7867H115.352Z" fill="#D1D1D1"/>
<path d="M133.301 16C131.8 16 130.641 15.5947 129.826 14.784C129.01 13.9591 128.603 12.8427 128.603 11.4347V0.213333H130.92V11.4133C130.92 12.2098 131.12 12.8356 131.521 13.2907C131.921 13.7458 132.515 13.9733 133.301 13.9733C134.088 13.9733 134.682 13.7458 135.082 13.2907C135.483 12.8356 135.683 12.2098 135.683 11.4133V0.213333H138V11.4347C138 12.8569 137.592 13.9733 136.777 14.784C135.962 15.5947 134.803 16 133.301 16Z" fill="#D1D1D1"/>
</svg>
