<svg width="75" height="24" viewBox="0 0 75 24" fill="none" xmlns="http://www.w3.org/2000/svg">
<path d="M0 23.6757V0H5.97563L8.39201 10.1189L10.8084 0H16.8493V23.6757H12.3758V14.5946C12.3758 12.2162 12.4737 9.93513 12.6696 7.75135C12.8873 5.54594 13.105 3.61081 13.3227 1.94595L10.3186 13.6216H6.40013L3.4613 2.23784C3.67899 3.64324 3.89668 5.43784 4.11437 7.62162C4.35383 9.78378 4.47356 12.1081 4.47356 14.5946V23.6757H0Z" fill="#D1D1D1"/>
<path d="M20.8203 23.6757V0H35.5145V4.21622H25.6204V9.53513H34.3716V13.5568H25.6204V19.4595H35.5145V23.6757H20.8203Z" fill="#D1D1D1"/>
<path d="M39.7467 23.6757V0H45.4611L51.6327 18.3243C51.5674 17.5243 51.4912 16.6054 51.4041 15.5676C51.317 14.5081 51.2408 13.4595 51.1755 12.4216C51.132 11.3622 51.1102 10.4649 51.1102 9.72973V0H55.4205V23.6757H49.7061L43.5999 5.35135C43.6652 6.04324 43.7305 6.86486 43.7958 7.81622C43.8611 8.76757 43.9155 9.72973 43.9591 10.7027C44.0244 11.6757 44.057 12.5405 44.057 13.2973V23.6757H39.7467Z" fill="#D1D1D1"/>
<path d="M67.1631 24C64.7467 24 62.831 23.3513 61.416 22.0541C60.0228 20.7568 59.3262 18.9838 59.3262 16.7351V0H64.2243V16.7027C64.2243 17.6973 64.4746 18.4649 64.9753 19.0054C65.4978 19.5243 66.227 19.7838 67.1631 19.7838C68.0774 19.7838 68.7958 19.5243 69.3183 19.0054C69.8407 18.4649 70.1019 17.6973 70.1019 16.7027V0H75V16.7351C75 18.9622 74.2925 20.7351 72.8775 22.0541C71.4843 23.3513 69.5795 24 67.1631 24Z" fill="#D1D1D1"/>
</svg>
