<svg width="24" height="24" viewBox="0 0 24 24" fill="none" xmlns="http://www.w3.org/2000/svg">
<path d="M0.922852 23.0771H4.61523V24H0V19.3848H0.922852V23.0771ZM24 24H19.3848V23.0771H23.0771V19.3848H24V24ZM12 10.376C12.8967 10.376 13.624 11.1033 13.624 12C13.624 12.8967 12.8967 13.624 12 13.624C11.1033 13.624 10.376 12.8967 10.376 12C10.376 11.1033 11.1033 10.376 12 10.376ZM4.61523 0.922852H0.922852V4.61523H0V0H4.61523V0.922852ZM24 4.61523H23.0771V0.922852H19.3848V0H24V4.61523Z" fill="white"/>
</svg>
