<svg width="16" height="16" viewBox="0 0 16 16" fill="none" xmlns="http://www.w3.org/2000/svg">
<path d="M0.615234 15.3848H3.07715V16H0V12.9229H0.615234V15.3848ZM16 16H12.9229V15.3848H15.3848V12.9229H16V16ZM8 5.53809C9.35947 5.53809 10.4619 6.64053 10.4619 8C10.4619 9.35947 9.35947 10.4619 8 10.4619C6.64053 10.4619 5.53809 9.35947 5.53809 8C5.53809 6.64053 6.64053 5.53809 8 5.53809ZM3.07715 0.615234H0.615234V3.07715H0V0H3.07715V0.615234ZM16 3.07715H15.3848V0.615234H12.9229V0H16V3.07715Z" fill="white"/>
</svg>
