<svg width="512" height="512" viewBox="0 0 512 512" fill="none" xmlns="http://www.w3.org/2000/svg">
<path d="M0 0H512V512H0V0Z" fill="black"/>
<path d="M87.3906 400.432V115.568H298.813C326.632 115.568 349.505 117.237 367.433 120.575C385.361 123.914 399.332 130.405 409.347 140.048C419.485 149.569 426.532 163.478 430.489 181.777C434.569 200.075 436.609 224.247 436.609 254.291V261.709C436.609 290.764 434.569 314.441 430.489 332.74C426.532 350.915 419.485 364.948 409.347 374.839C399.332 384.606 385.361 391.345 367.433 395.054C349.505 398.639 326.632 400.432 298.813 400.432H87.3906ZM122.999 369.646H298.813C320.945 369.646 338.749 368.595 352.225 366.493C365.702 364.391 375.964 359.817 383.012 352.769C390.059 345.722 394.819 334.965 397.292 320.5C399.765 306.034 401.001 286.437 401.001 261.709V254.291C401.001 233.767 400.259 216.828 398.776 203.475C397.292 190.122 394.51 179.613 390.43 171.947C386.473 164.158 380.662 158.471 372.997 154.885C365.455 151.176 355.626 148.827 343.509 147.838C331.392 146.849 316.494 146.354 298.813 146.354H122.999V369.646Z" fill="white"/>
</svg>
